0
SECTION
2
HEADER
9
$INSUNITS
70
4
0
ENDSEC
0
SECTION
2
TABLES
0
TABLE
2
LAYER
0
LAYER
2
WALLS
70
0
62
7
0
LAYER
2
COLUMNS
70
0
62
7
0
LAYER
2
DOORS
70
0
62
7
0
LAYER
2
MACHINES
70
0
62
7
0
LAYER
2
LABELS
70
0
62
7
0
LAYER
2
DIMENSIONS
70
0
62
7
0
LAYER
2
CONVEYOR
70
0
62
7
0
ENDTAB
0
ENDSEC
0
SECTION
2
BLOCKS
0
BLOCK
8
0
2
MACHINE
70
0
10
0
20
0
30
0
0
LWPOLYLINE
8
0
90
4
70
1
10
-1500
20
-1000
10
1500
20
-1000
10
1500
20
1000
10
-1500
20
1000
0
CIRCLE
8
0
10
0
20
0
30
0
40
400
0
ENDBLK
8
0
0
BLOCK
8
0
2
*D1
70
0
10
0
20
0
30
0
0
LINE
8
0
10
0
20
-2000
30
0
11
40000
21
-2000
31
0
0
LINE
8
0
10
0
20
-2300
30
0
11
0
21
-1700
31
0
0
LINE
8
0
10
40000
20
-2300
30
0
11
40000
21
-1700
31
0
0
TEXT
8
0
10
18500
20
-1800
30
0
40
500
1
40000
50
0
0
ENDBLK
8
0
0
ENDSEC
0
SECTION
2
ENTITIES
0
LINE
8
WALLS
10
0
20
0
30
0
11
17000
21
0
31
0
0
LINE
8
WALLS
10
21000
20
0
30
0
11
40000
21
0
31
0
0
LINE
8
WALLS
10
40000
20
0
30
0
11
40000
21
25000
31
0
0
LINE
8
WALLS
10
40000
20
25000
30
0
11
0
21
25000
31
0
0
LINE
8
WALLS
10
0
20
25000
30
0
11
0
21
0
31
0
0
LWPOLYLINE
8
WALLS
90
2
70
0
10
250
20
250
10
16750
20
250
0
LWPOLYLINE
8
WALLS
90
5
70
0
10
21250
20
250
10
39750
20
250
10
39750
20
24750
10
250
20
24750
10
250
20
250
0
LWPOLYLINE
8
COLUMNS
90
4
70
1
10
4800
20
4800
10
5200
20
4800
10
5200
20
5200
10
4800
20
5200
0
LWPOLYLINE
8
COLUMNS
90
4
70
1
10
4800
20
19800
10
5200
20
19800
10
5200
20
20200
10
4800
20
20200
0
LWPOLYLINE
8
COLUMNS
90
4
70
1
10
14800
20
4800
10
15200
20
4800
10
15200
20
5200
10
14800
20
5200
0
LWPOLYLINE
8
COLUMNS
90
4
70
1
10
14800
20
19800
10
15200
20
19800
10
15200
20
20200
10
14800
20
20200
0
LWPOLYLINE
8
COLUMNS
90
4
70
1
10
24800
20
4800
10
25200
20
4800
10
25200
20
5200
10
24800
20
5200
0
LWPOLYLINE
8
COLUMNS
90
4
70
1
10
24800
20
19800
10
25200
20
19800
10
25200
20
20200
10
24800
20
20200
0
LWPOLYLINE
8
COLUMNS
90
4
70
1
10
34800
20
4800
10
35200
20
4800
10
35200
20
5200
10
34800
20
5200
0
LWPOLYLINE
8
COLUMNS
90
4
70
1
10
34800
20
19800
10
35200
20
19800
10
35200
20
20200
10
34800
20
20200
0
LINE
8
DOORS
10
17000
20
0
30
0
11
17000
21
2000
31
0
0
LWPOLYLINE
8
DOORS
90
2
70
0
10
17000
20
2000
42
-0.41421356237309503
10
19000
20
0
0
ARC
8
DOORS
10
21000
20
0
30
0
40
2000
50
90
51
180
0
INSERT
8
MACHINES
2
MACHINE
10
8000
20
12500
30
0
41
1
42
1
50
0
0
INSERT
8
MACHINES
2
MACHINE
10
30000
20
12500
30
0
41
1
42
1
50
90
0
LWPOLYLINE
8
CONVEYOR
90
4
70
1
10
12000
20
13500
10
26000
20
13500
10
26000
20
11500
10
12000
20
11500
0
TEXT
8
LABELS
10
6500
20
14500
30
0
40
600
1
CELL 1
50
0
0
TEXT
8
LABELS
10
28000
20
15500
30
0
40
600
1
PALLETS
50
0
0
TEXT
8
LABELS
10
17500
20
1000
30
0
40
500
1
DOOR
50
0
0
DIMENSION
8
DIMENSIONS
2
*D1
10
0
20
-2000
70
0
0
HATCH
8
WALLS
2
SOLID
0
ENDSEC
0
EOF
